<svg xmlns="http://www.w3.org/2000/svg" width="360" height="120" viewBox="0 0 360 120" role="img" aria-label="Paraná Atual">
  <rect width="360" height="120" fill="none"/>
  <path d="M34 53c6-20 31-27 51-20 12-9 33-9 48 1 14-2 28 3 35 13 17 0 31 11 34 25-11 1-22 5-31 13-25-2-45 6-63 14-18-7-39-8-61-4-10-8-24-12-42-13 3-12 14-21 29-29z" fill="#11f51f"/>
  <text x="205" y="48" font-family="Arial Black, Montserrat, sans-serif" font-size="38" font-weight="900" fill="#fff" text-anchor="middle">PARANÁ</text>
  <text x="205" y="88" font-family="Arial Black, Montserrat, sans-serif" font-size="38" font-weight="900" fill="#11f51f" text-anchor="middle">ATUAL</text>
</svg>
